<?xml version="1.0" standalone="no"?>
<!DOCTYPE svg PUBLIC "-//W3C//DTD SVG 20010904//EN"
 "http://www.w3.org/TR/2001/REC-SVG-20010904/DTD/svg10.dtd">
<svg version="1.0" xmlns="http://www.w3.org/2000/svg"
 width="800.000000pt" height="800.000000pt" viewBox="0 0 800.000000 800.000000"
 preserveAspectRatio="xMidYMid meet">

<g transform="translate(0.000000,800.000000) scale(0.100000,-0.100000)"
fill="#000000" stroke="none">
<path d="M2035 5963 c-1078 -1080 -1961 -1970 -1963 -1977 -2 -7 648 -668
1445 -1467 796 -800 1682 -1689 1968 -1977 l520 -523 374 378 c206 208 631
637 945 953 704 709 2273 2295 2458 2485 75 77 136 145 136 150 0 12 -176 190
-1993 2020 -737 743 -1468 1479 -1624 1638 -157 158 -289 286 -295 286 -6 -1
-893 -885 -1971 -1966z m2755 787 l0 -111 -240 3 c-192 2 -241 0 -245 -10 -9
-23 -4 -1176 5 -1197 5 -11 9 -14 9 -7 1 9 55 12 236 12 l235 0 0 -110 0 -110
-720 0 -720 0 0 100 c0 93 1 100 20 100 11 0 20 5 20 10 0 16 497 13 503 -2 3
-7 6 264 6 602 l1 615 -255 -3 c-171 -2 -255 1 -255 8 0 5 -9 10 -20 10 -19 0
-20 7 -20 100 l0 100 720 0 720 0 0 -110z m1048 -1892 c48 -122 256 -662 446
-1157 141 -366 194 -483 230 -506 12 -7 42 -17 69 -20 l47 -7 0 -59 0 -59
-345 0 -345 0 0 59 0 58 69 7 c48 5 78 14 97 28 24 19 26 26 21 72 -5 46 -59
210 -108 323 l-18 43 -288 -2 -287 -3 -53 -160 c-56 -171 -66 -250 -38 -279 9
-8 42 -18 75 -22 l60 -7 0 -58 0 -59 -270 0 -270 0 0 59 0 59 44 6 c89 14 47
-86 646 1546 38 102 73 197 79 213 9 24 16 27 55 27 l44 0 40 -102z m-1729
-545 c229 -342 420 -625 425 -630 4 -4 6 191 3 437 -6 572 -8 579 -131 620
-34 11 -82 24 -107 28 l-44 8 0 79 0 80 359 0 358 0 0 -79 0 -80 -67 -14 c-99
-19 -137 -40 -160 -87 -19 -39 -20 -63 -23 -817 l-3 -778 -78 0 -77 0 -133
198 c-73 108 -278 413 -454 677 l-322 480 -3 -435 c-4 -591 6 -655 105 -698
26 -11 76 -26 111 -33 l62 -13 0 -78 0 -78 -360 0 -360 0 0 78 0 77 79 18 c44
10 94 28 113 40 62 42 62 42 66 665 3 605 2 632 -48 695 -27 33 -134 85 -194
93 l-46 7 0 77 c0 42 3 80 7 84 4 3 119 5 256 4 l249 -3 417 -622z m-1125 511
c9 -23 7 -197 -2 -211 -6 -9 -70 -13 -242 -15 l-235 -3 -3 -638 c-1 -403 1
-645 8 -655 5 -10 10 -12 10 -4 0 9 53 12 229 12 l229 0 6 -22 c8 -30 8 -182
0 -202 -6 -14 -77 -16 -705 -16 l-699 0 0 105 c0 88 3 105 15 105 9 0 18 7 21
15 5 13 41 15 234 15 173 0 230 -3 233 -12 3 -7 6 287 6 655 l1 667 -255 0
-255 0 0 110 0 110 699 0 c628 0 699 -2 705 -16z m-1016 -221 c-65 -2 -171 -2
-235 0 -65 1 -12 3 117 3 129 0 182 -2 118 -3z m2087 -1835 c15 -33 223 -559
470 -1188 206 -524 201 -515 318 -536 l37 -6 0 -59 0 -59 -347 2 -348 3 0 55
0 55 50 8 c110 18 119 21 133 50 18 38 5 97 -61 267 l-52 135 -290 3 -290 2
-54 -160 c-30 -92 -53 -180 -53 -206 -1 -55 22 -84 68 -84 18 0 44 -4 59 -10
24 -9 26 -14 23 -62 l-3 -53 -270 0 -270 0 0 54 0 55 50 12 c29 8 56 23 67 36
33 43 99 211 370 932 148 396 275 734 283 753 13 30 18 33 55 33 36 0 42 -4
55 -32z"/>
<path d="M5708 4425 c-8 -14 -218 -599 -218 -608 0 -4 101 -7 225 -7 l224 0
-30 83 c-38 101 -185 506 -191 527 -2 7 -7 10 -10 5z"/>
<path d="M2623 4613 c64 -2 170 -2 235 0 64 1 11 3 -118 3 -129 0 -182 -2
-117 -3z"/>
<path d="M3846 1980 c-60 -164 -108 -302 -108 -305 1 -3 102 -6 225 -6 122 0
221 4 220 8 -3 12 -223 596 -226 599 -1 1 -51 -132 -111 -296z"/>
</g>
</svg>
